<mxfile host="app.diagrams.net" modified="2022-02-08T23:29:51.859Z" agent="5.0 (Macintosh; Intel Mac OS X 10_15_7) AppleWebKit/537.36 (KHTML, like Gecko) Chrome/97.0.4692.99 Safari/537.36" etag="tas6xed4NPBu7DHES2Ll" version="16.5.4" type="github">
  <diagram name="Page-1" id="fc2ac565-0d4e-3f0d-88b0-a54af1634ed7">
    <mxGraphModel dx="1198" dy="649" grid="1" gridSize="10" guides="1" tooltips="1" connect="0" arrows="1" fold="1" page="1" pageScale="1.5" pageWidth="1169" pageHeight="827" background="none" math="0" shadow="0">
      <root>
        <mxCell id="0" style=";html=1;" />
        <mxCell id="1" style=";html=1;" parent="0" />
        <mxCell id="1QujzcOoGymnb1EIAtuT-139" value="size" style="strokeWidth=1;fontStyle=0;html=1;strokeColor=#CCCCCC;" vertex="1" parent="1">
          <mxGeometry x="140" y="290" width="160" height="20" as="geometry" />
        </mxCell>
        <mxCell id="1QujzcOoGymnb1EIAtuT-140" value="count" style="strokeWidth=1;fontStyle=0;html=1;strokeColor=#CCCCCC;" vertex="1" parent="1">
          <mxGeometry x="300" y="290" width="160" height="20" as="geometry" />
        </mxCell>
        <mxCell id="1QujzcOoGymnb1EIAtuT-143" value="max" style="align=center;strokeColor=#CCCCCC;html=1;" vertex="1" parent="1">
          <mxGeometry x="713" y="290" width="60" height="20" as="geometry" />
        </mxCell>
        <mxCell id="1QujzcOoGymnb1EIAtuT-144" value="var" style="align=center;strokeColor=#CCCCCC;html=1;" vertex="1" parent="1">
          <mxGeometry x="773" y="290" width="60" height="20" as="geometry" />
        </mxCell>
        <mxCell id="1QujzcOoGymnb1EIAtuT-145" value="skew" style="align=center;strokeColor=#CCCCCC;html=1;" vertex="1" parent="1">
          <mxGeometry x="833" y="290" width="60" height="20" as="geometry" />
        </mxCell>
        <mxCell id="1QujzcOoGymnb1EIAtuT-146" value="sum" style="align=center;strokeColor=#CCCCCC;html=1;" vertex="1" parent="1">
          <mxGeometry x="893" y="290" width="60" height="20" as="geometry" />
        </mxCell>
        <mxCell id="2" value="&amp;nbsp;card_id" style="strokeWidth=1;fontStyle=0;html=1;" parent="1" vertex="1">
          <mxGeometry x="210" y="130" width="320" height="20" as="geometry" />
        </mxCell>
        <mxCell id="4" value="category" style="strokeWidth=1;fontStyle=0;html=1;" parent="1" vertex="1">
          <mxGeometry x="530" y="130" width="133" height="20" as="geometry" />
        </mxCell>
        <mxCell id="1QujzcOoGymnb1EIAtuT-106" value="numerical" style="strokeWidth=1;fontStyle=0;html=1;" vertex="1" parent="1">
          <mxGeometry x="663" y="130" width="133" height="20" as="geometry" />
        </mxCell>
        <mxCell id="1QujzcOoGymnb1EIAtuT-116" value="&amp;nbsp;card_id" style="strokeWidth=1;fontStyle=0;html=1;" vertex="1" parent="1">
          <mxGeometry x="140" y="270" width="320" height="20" as="geometry" />
        </mxCell>
        <mxCell id="1QujzcOoGymnb1EIAtuT-119" value="nunique" style="align=center;strokeColor=#CCCCCC;html=1;" vertex="1" parent="1">
          <mxGeometry x="460" y="290" width="133" height="20" as="geometry" />
        </mxCell>
        <mxCell id="1QujzcOoGymnb1EIAtuT-120" value="category" style="strokeWidth=1;fontStyle=0;html=1;" vertex="1" parent="1">
          <mxGeometry x="460" y="270" width="133" height="20" as="geometry" />
        </mxCell>
        <mxCell id="1QujzcOoGymnb1EIAtuT-133" value="nunique" style="align=center;strokeColor=#CCCCCC;html=1;" vertex="1" parent="1">
          <mxGeometry x="593" y="290" width="60" height="20" as="geometry" />
        </mxCell>
        <mxCell id="1QujzcOoGymnb1EIAtuT-142" value="min" style="align=center;strokeColor=#CCCCCC;html=1;" vertex="1" parent="1">
          <mxGeometry x="653" y="290" width="60" height="20" as="geometry" />
        </mxCell>
        <mxCell id="1QujzcOoGymnb1EIAtuT-134" value="numerical" style="strokeWidth=1;fontStyle=0;html=1;" vertex="1" parent="1">
          <mxGeometry x="593" y="270" width="360" height="20" as="geometry" />
        </mxCell>
        <mxCell id="1QujzcOoGymnb1EIAtuT-148" value="" style="shape=flexArrow;endArrow=classic;html=1;rounded=0;" edge="1" parent="1">
          <mxGeometry width="50" height="50" relative="1" as="geometry">
            <mxPoint x="520" y="170" as="sourcePoint" />
            <mxPoint x="520" y="250" as="targetPoint" />
            <Array as="points">
              <mxPoint x="520" y="190" />
            </Array>
          </mxGeometry>
        </mxCell>
        <mxCell id="1QujzcOoGymnb1EIAtuT-149" value="" style="shape=flexArrow;endArrow=classic;html=1;rounded=0;" edge="1" parent="1">
          <mxGeometry width="50" height="50" relative="1" as="geometry">
            <mxPoint x="520" y="320" as="sourcePoint" />
            <mxPoint x="520" y="400" as="targetPoint" />
            <Array as="points">
              <mxPoint x="520" y="340" />
            </Array>
          </mxGeometry>
        </mxCell>
        <mxCell id="1QujzcOoGymnb1EIAtuT-150" value="card_size" style="strokeWidth=1;fontStyle=0;html=1;strokeColor=#000000;" vertex="1" parent="1">
          <mxGeometry x="130" y="440" width="160" height="20" as="geometry" />
        </mxCell>
        <mxCell id="1QujzcOoGymnb1EIAtuT-151" value="card_count" style="strokeWidth=1;fontStyle=0;html=1;strokeColor=#000000;" vertex="1" parent="1">
          <mxGeometry x="290" y="440" width="160" height="20" as="geometry" />
        </mxCell>
        <mxCell id="1QujzcOoGymnb1EIAtuT-152" value="n_max" style="align=center;strokeColor=#000000;html=1;" vertex="1" parent="1">
          <mxGeometry x="703" y="440" width="60" height="20" as="geometry" />
        </mxCell>
        <mxCell id="1QujzcOoGymnb1EIAtuT-153" value="n_var" style="align=center;strokeColor=#000000;html=1;" vertex="1" parent="1">
          <mxGeometry x="763" y="440" width="60" height="20" as="geometry" />
        </mxCell>
        <mxCell id="1QujzcOoGymnb1EIAtuT-154" value="n_skew" style="align=center;strokeColor=#000000;html=1;" vertex="1" parent="1">
          <mxGeometry x="823" y="440" width="60" height="20" as="geometry" />
        </mxCell>
        <mxCell id="1QujzcOoGymnb1EIAtuT-155" value="n_sum" style="align=center;strokeColor=#000000;html=1;" vertex="1" parent="1">
          <mxGeometry x="883" y="440" width="60" height="20" as="geometry" />
        </mxCell>
        <mxCell id="1QujzcOoGymnb1EIAtuT-157" value="cata_nunique" style="align=center;strokeColor=#000000;html=1;" vertex="1" parent="1">
          <mxGeometry x="450" y="440" width="133" height="20" as="geometry" />
        </mxCell>
        <mxCell id="1QujzcOoGymnb1EIAtuT-159" value="n_nunique" style="align=center;strokeColor=#000000;html=1;" vertex="1" parent="1">
          <mxGeometry x="583" y="440" width="60" height="20" as="geometry" />
        </mxCell>
        <mxCell id="1QujzcOoGymnb1EIAtuT-160" value="n_min" style="align=center;strokeColor=#000000;html=1;" vertex="1" parent="1">
          <mxGeometry x="643" y="440" width="60" height="20" as="geometry" />
        </mxCell>
      </root>
    </mxGraphModel>
  </diagram>
</mxfile>
